HIERARCHY
ROOT Hips
{
	OFFSET	0.00	0.00	0.00
	CHANNELS 6 Xposition Yposition Zposition Zrotation Xrotation Yrotation
	JOINT Spine
	{
		OFFSET	 0.00	0.01	 0.00
		CHANNELS 3 Zrotation Xrotation Yrotation
		JOINT Spine1
		{
			OFFSET	 0.00	 2.45913012437421	 0.00
			CHANNELS 3 Zrotation Xrotation Yrotation
            JOINT Neck
            {
                OFFSET	 0.00	 2.48462964506057	 0.00
                CHANNELS 3 Zrotation Xrotation Yrotation
                JOINT Head
                {
                    OFFSET	 0.00	 0.927524780924562	 0.00
                    CHANNELS 3 Zrotation Xrotation Yrotation
                    End Site 
                    {
                        OFFSET	 0.00	 1.14999962169752	 0.00
                    }
                }
            }
			JOINT LeftShoulder
			{
				OFFSET	 0.00	 2.48462964506057	 0.00
				CHANNELS 3 Zrotation Xrotation Yrotation
				JOINT LeftUpArm
				{
					OFFSET	 0.00	 1.24881979654096	 0.00
					CHANNELS 3 Zrotation Xrotation Yrotation
					JOINT LeftForeArm
					{
						OFFSET	 0.00	2.59758046908119	 0.00
						CHANNELS 3 Zrotation Xrotation Yrotation
						JOINT LeftHand
						{
							OFFSET	 0.00	2.45542024364365	 0.00
							CHANNELS 3 Zrotation Xrotation Yrotation
							JOINT LeftHandThumb 
							{
								OFFSET	 0.00	0.00	 0.00
								CHANNELS 3 Zrotation Xrotation Yrotation
								End Site
								{
									OFFSET	 0.00	0.00	1.00000003353624
								}
							}
							JOINT L_Wrist_End 
							{
								OFFSET	 0.00	0.99999967115358	 0.00
								CHANNELS 3 Zrotation Xrotation Yrotation
								End Site 
								{
									OFFSET	 0.00	 0.00	 0.00
								}
							}
						}
					}
				}
			}
			JOINT RightShoulder
			{
				OFFSET	 0.00	 2.48462964506057	 0.00
				CHANNELS 3 Zrotation Xrotation Yrotation
				JOINT RightUpArm
				{
					OFFSET	 0.00	 1.24881979654096	 0.00
					CHANNELS 3 Zrotation Xrotation Yrotation
					JOINT RightForeArm
					{
						OFFSET	 0.00	2.59758046908119	 0.00
						CHANNELS 3 Zrotation Xrotation Yrotation
						JOINT RightHand
						{
							OFFSET	 0.00	2.45542024364365	 0.00
							CHANNELS 3 Zrotation Xrotation Yrotation
							JOINT RightHandThumb 
							{
								OFFSET	 0.00	0.00	 0.00
								CHANNELS 3 Zrotation Xrotation Yrotation
								End Site
								{
									OFFSET	 0.00	0.00	1.00000003353624
								}
							}
							JOINT R_Wrist_End 
							{
								OFFSET	 0.00	0.99999967115358	 0.00
								CHANNELS 3 Zrotation Xrotation Yrotation
								End Site 
								{
									OFFSET	 0.00	 0.00	 0.00
								}
							}
						}
					}
				}
			}
		}
	}
	JOINT LeftUpLeg
	{
		OFFSET	 1.2719394002717	 0.00	 0.00
		CHANNELS 3 Zrotation Xrotation Yrotation
		JOINT LeftLowLeg
		{
			OFFSET	 0.00	-4.3429100912261	 0.00
			CHANNELS 3 Zrotation Xrotation Yrotation
			JOINT LeftFoot
			{
				OFFSET	 0.00	-4.48767017425826	 0.00
				CHANNELS 3 Zrotation Xrotation Yrotation
				JOINT LeftToeBase
                {
                    OFFSET	 0.00	0.00	 1.51507020887566
                    CHANNELS 3 Zrotation Xrotation Yrotation
                    End Site 
                    {
                        OFFSET	 0.00	0.00	 0.75000010571191
                    }
                }
			}
		}
	}
	JOINT RightUpLeg
	{
		OFFSET	 -1.2719393604653	 0.00	 0.00
		CHANNELS 3 Zrotation Xrotation Yrotation
		JOINT RightLowLeg
		{
			OFFSET	 0.00	-4.3429100912261	 0.00
			CHANNELS 3 Zrotation Xrotation Yrotation
			JOINT RightFoot
			{
				OFFSET	 0.00	-4.48767017425826	 0.00
				CHANNELS 3 Zrotation Xrotation Yrotation
				JOINT RightToeBase
                {
                    OFFSET	 0.00	0.00	 1.51507020887566
                    CHANNELS 3 Zrotation Xrotation Yrotation
                    End Site 
                    {
                        OFFSET	 0.00	0.00	 0.749999965609858
                    }
                }   
			}
		}
	}
}
MOTION 
Frames:	6 
Frame Time: 0.02 
 -1.3927000427246095 -0.2100830078125 10.4677001953125 -74.2386 84.0086 73.5792 4.54852 -21.8714 -3.71932 1.53094 34.2012 0.787878 -4.07872 23.6739 3.20828 27.6543 -73.2322 23.412 -121.4874 2.64146 -8.9546 -36.8227 1.04117 36.7952 0.0 29.1796 0.0 8.18817 -7.19401 -0.254815 0.0 0.0 0.0 0.0 0.0 0.0 118.1775 0.974302 3.23333 39.0556 4.17652 -29.1468 0.0 26.1208 0.0 -4.0801 -0.862903 9.55717 0.0 0.0 0.0 0.0 0.0 0.0 5.47072 10.8624 20.0427 0.0 0.0638194 0.0 -8.38769 7.27179 8.29977 0.0 -10.26519 0.0 7.49326 7.76524 8.2345 0.0 6.2773 0.0 18.1621 10.54007 -20.9824 0.0 -14.807071 0.0 
  -1.3935699462890625 -0.20505500793457032 10.468199462890626 -74.0583 84.0133 73.4125 4.5341 -21.859 -3.74006 1.53202 34.2552 0.770284 -4.11974 23.6778 3.23466 27.6661 -73.2479 23.4311 -121.4521 2.66089 -8.93406 -36.8312 1.08456 36.8584 0.0 29.1164 0.0 8.30856 -7.11299 -0.252539 0.0 0.0 0.0 0.0 0.0 0.0 118.1723 1.03302 3.24657 38.9693 4.30988 -28.9845 0.0 26.3389 0.0 -3.96603 -1.03959 9.57691 0.0 0.0 0.0 0.0 0.0 0.0 5.46849 10.8388 20.0497 0.0 0.0749312 0.0 -8.37517 7.29549 8.29773 0.0 -10.257851 0.0 7.49298 7.74538 8.22602 0.0 6.29016 0.0 18.1365 10.546101 -21.0034 0.0 -14.78068 0.0 
  -1.3944999694824218 -0.20065099716186524 10.468599853515625 -73.8784 84.0095 73.2826 4.52722 -21.8402 -3.76888 1.5216 34.288 0.723412 -4.11468 23.6934 3.22265 27.6583 -73.2562 23.4213 -121.4591 2.67172 -8.93336 -36.7588 1.09263 36.8996 0.0 29.0975 0.0 8.26173 -7.17289 -0.131622 0.0 0.0 0.0 0.0 0.0 0.0 118.185196 1.08449 3.24864 38.8689 4.44847 -29.0009 0.0 26.484 0.0 -4.14664 -1.08214 9.65021 0.0 0.0 0.0 0.0 0.0 0.0 5.48416 10.8085 20.0146 0.0 0.0978796 0.0 -8.34863 7.30922 8.29805 0.0 -10.293261 0.0 7.50831 7.72705 8.23755 0.0 6.31838 0.0 18.1777 10.52553 -21.0456 0.0 -14.797455 0.0 
  -1.3960299682617188 -0.19706100463867188 10.468900146484375 -73.6888 83.9931 73.1235 4.53766 -21.8179 -3.7699 1.50277 34.3192 0.691585 -4.07628 23.7368 3.17636 27.6731 -73.2905 23.4514 -121.4203 2.70132 -8.91656 -36.7453 1.07741 36.858 0.0 29.064 0.0 8.15457 -7.26613 -0.0998738 0.0 0.0 0.0 0.0 0.0 0.0 118.201004 1.09534 3.2309 38.7844 4.57281 -28.8891 0.0 26.6734 0.0 -4.3083 -1.00487 9.76007 0.0 0.0 0.0 0.0 0.0 0.0 5.50906 10.799 20.045 0.0 0.106715 0.0 -8.34444 7.31391 8.25023 0.0 -10.239309 0.0 7.53712 7.70403 8.25589 0.0 6.36835 0.0 18.1805 10.517 -21.0874 0.0 -14.790737 0.0 
  -1.3973199462890624 -0.1927479934692383 10.46949951171875 -73.3976 83.9716 72.864 4.51233 -21.8054 -3.8013 1.55365 34.4432 0.701465 -4.05588 23.6979 3.11456 27.5432 -73.3213 23.3374 -121.3576 2.7777 -8.94762 -36.8356 1.07485 36.8812 0.0 28.9257 0.0 8.06777 -7.16481 -0.31659 0.0 0.0 0.0 0.0 0.0 0.0 118.1419 1.06455 3.29034 38.7628 4.7479 -28.7712 0.0 26.7499 0.0 -4.28517 -1.01252 9.84641 0.0 0.0 0.0 0.0 0.0 0.0 5.52827 10.8082 20.1033 0.0 0.0847049 0.0 -8.33085 7.35856 8.18743 0.0 -10.255819 0.0 7.56756 7.66105 8.24352 0.0 6.47157 0.0 18.1904 10.51247 -21.0969 0.0 -14.787842 0.0 
  -1.3991200256347656 -0.18835800170898437 10.470400390625 -73.1635 83.9442 72.6499 4.51022 -21.7749 -3.82294 1.56986 34.528 0.673504 -4.06746 23.7712 3.09955 27.725 -73.4398 23.5075 -121.411804 2.79547 -8.92454 -36.6717 1.06174 37.1271 0.0 29.0022 0.0 8.18824 -7.24046 -0.448466 0.0 0.0 0.0 0.0 0.0 0.0 118.143 1.13505 3.28724 38.6542 4.8486 -28.6214 0.0 26.9256 0.0 -4.41566 -0.969326 9.58831 0.0 0.0 0.0 0.0 0.0 0.0 5.55596 10.8209 20.1079 0.0 0.056221 0.0 -8.31922 7.40159 8.16488 0.0 -10.2009 0.0 7.6096 7.60221 8.27036 0.0 6.59589 0.0 18.2155 10.50078 -21.1349 0.0 -14.810629 0.0 
